<svg id="圖層_1" data-name="圖層 1" xmlns="http://www.w3.org/2000/svg" viewBox="0 0 110 110"><defs><style>.cls-1{fill:#0091da;}.cls-2{fill:#aacc03;}.cls-3{fill:#fff;}</style></defs><path class="cls-1" d="M45.8,44.46h0c-.93.77-1,1.51-1,3v19.6H56.27V36.2Z"/><path class="cls-1" d="M102.13,61.93V35.81c0-10-1.84-10-13-10H67.8L56.27,36.2h5.25c2.68,0,4.06.17,4.06,3.79V67.06H78.77V36.3h5.74c2.94,0,3.61.83,3.61,3.69V67.06h9.71C99.84,66.92,102,66.09,102.13,61.93Z"/><path class="cls-2" d="M49.27,25.76c-2,.1-4.26.85-4.46,5V36.2H56.27V25.76Z"/><path class="cls-2" d="M17.27,25.76c-10,0-9.32,2.56-9.32,13.7V59.22c.19,6.92,1.59,7.74,9,7.84H40.84V56.76H24c-2.09-.2-2.6-1.15-2.6-3.65,0-.47,0-11.82,0-13.36,0-2.94.83-3.61,3.69-3.61h15.8V31.71c.16-4.55,1.38-5.95,3.49-5.95Z"/><path class="cls-3" d="M90,81.08,89.83,81l-.17.14a4.71,4.71,0,0,1-3.09,1.11,4.6,4.6,0,0,1-3-1,3.06,3.06,0,0,1,0-4.86,4.52,4.52,0,0,1,3-1,4.72,4.72,0,0,1,3.09,1.1l.17.13,1.72-1.35L91.3,75a7.21,7.21,0,0,0-4.73-1.7A7,7,0,0,0,82,74.88a4.89,4.89,0,0,0,0,7.78,7.44,7.44,0,0,0,9.18,0,3.22,3.22,0,0,0,.39-.36L90,81.08Z"/><rect class="cls-3" x="21.72" y="73.53" width="2.32" height="10.48"/><polygon class="cls-3" points="36.21 73.67 33.04 80.91 29.89 73.67 26.85 73.67 26.85 84.14 29.17 84.14 29.17 77.68 31.99 84.14 34.11 84.14 36.92 77.7 36.92 84.14 39.25 84.14 39.25 73.67 36.21 73.67"/><polygon class="cls-3" points="51.43 75.55 51.43 73.53 42.44 73.53 42.44 84 44.76 84 44.76 79.77 49.98 79.77 49.98 77.75 44.76 77.75 44.76 75.55 51.43 75.55"/><path class="cls-3" d="M63.92,74.87a7.41,7.41,0,0,0-9.17,0,4.93,4.93,0,0,0-1.93,3.89,4.73,4.73,0,0,0,.48,2.11,5.43,5.43,0,0,0,1.45,1.78,7.41,7.41,0,0,0,9.17,0,4.92,4.92,0,0,0,2-3.89A5,5,0,0,0,63.92,74.87Zm-1.59,6.32a4.85,4.85,0,0,1-6,0,3,3,0,0,1,0-4.86,4.52,4.52,0,0,1,3-1,4.6,4.6,0,0,1,3,1,3.09,3.09,0,0,1,1.22,2.44A3.06,3.06,0,0,1,62.33,81.19Z"/><path class="cls-3" d="M76.1,80a6,6,0,0,0-.5-.57,4.52,4.52,0,0,0,1.22-.8,2.72,2.72,0,0,0,.86-1.94,2.77,2.77,0,0,0-1.3-2.3,4.78,4.78,0,0,0-2.77-.82H68.25V84h2.32V79.77h1.3a2.11,2.11,0,0,1,1.8.68L76.43,84h2.82Zm-5.53-4.42h3a2.36,2.36,0,0,1,1.24.33.92.92,0,0,1,.49.78.89.89,0,0,1-.49.77,2.27,2.27,0,0,1-1.24.33h-3Z"/><polygon class="cls-3" points="101.95 75.55 101.95 73.53 92.96 73.53 92.96 84 101.95 84 101.95 81.97 95.28 81.97 95.28 79.77 100.5 79.77 100.5 77.75 95.28 77.75 95.28 75.55 101.95 75.55"/><path class="cls-3" d="M17.77,81.08,17.64,81l-.17.14a4.7,4.7,0,0,1-3.08,1.11,4.61,4.61,0,0,1-3-1,3.06,3.06,0,0,1,0-4.86,4.53,4.53,0,0,1,3-1,4.71,4.71,0,0,1,3.08,1.1l.17.13,1.72-1.35L19.11,75a7.2,7.2,0,0,0-4.72-1.7,7,7,0,0,0-4.59,1.6,4.89,4.89,0,0,0,0,7.78,7,7,0,0,0,4.6,1.58A7,7,0,0,0,19,82.65a3.22,3.22,0,0,0,.39-.36l-1.59-1.21Z"/></svg>